<svg xmlns="http://www.w3.org/2000/svg" xmlns:xlink="http://www.w3.org/1999/xlink" xmlns:lucid="lucid" width="1120"
    height="740">
    <g transform="translate(-196.10314180708804 -186.7028109138198)" lucid:page-tab-id="0_0">
        <path d="M0 0h1512.2v1113.4H0z" fill="#fff" />
        <path d="M216.1 214.7a8 8 0 0 1 8-8h1064a8 8 0 0 1 8 8v684a8 8 0 0 1-8 8h-1064a8 8 0 0 1-8-8z" stroke="#333"
            stroke-width="2" fill="#979ea8" />
        <path d="M816.1 251.37a8 8 0 0 1 8-8h384a8 8 0 0 1 8 8v216a8 8 0 0 1-8 8h-384a8 8 0 0 1-8-8z" fill="#fff" />
        <path d="M816.1 315.37v33h400v-33M816.1 379.37v33h400v-33M816.1 443.37v24a8 8 0 0 0 8 8h384a8 8 0 0 0 8-8v-24"
            fill="#e6e6e6" />
        <path d="M816.1 283.37v-32a8 8 0 0 1 8-8h384a8 8 0 0 1 8 8v32" fill="#ccc" />
        <path
            d="M816.1 251.37a8 8 0 0 1 8-8h384a8 8 0 0 1 8 8v216a8 8 0 0 1-8 8h-384a8 8 0 0 1-8-8zM816.1 283.37h400M876.1 283.37v192M1103.1 283.37v192"
            stroke="#333" stroke-width="2" fill="none" />
        <use xlink:href="#a" transform="matrix(1,0,0,1,826.1031418070879,243.36947758048643) translate(151.05 23.6)" />
        <use xlink:href="#b" transform="matrix(1,0,0,1,821.1031418070879,285.86947758048643) translate(13 17.1)" />
        <use xlink:href="#c"
            transform="matrix(1,0,0,1,881.1031418070879,285.86947758048643) translate(57.574999999999996 17.1)" />
        <use xlink:href="#d" transform="matrix(1,0,0,1,1108.103141807088,285.86947758048643) translate(42.025 17.1)" />
        <use xlink:href="#e" transform="matrix(1,0,0,1,881.1031418070879,317.86947758048643) translate(64.6 17.1)" />
        <use xlink:href="#f"
            transform="matrix(1,0,0,1,1108.103141807088,317.86947758048643) translate(5.599999999999994 17.1)" />
        <use xlink:href="#g" transform="matrix(1,0,0,1,881.1031418070879,349.86947758048643) translate(67.05 17.1)" />
        <use xlink:href="#f"
            transform="matrix(1,0,0,1,1108.103141807088,349.86947758048643) translate(5.599999999999994 17.1)" />
        <use xlink:href="#h"
            transform="matrix(1,0,0,1,881.1031418070879,381.86947758048643) translate(87.07499999999999 17.1)" />
        <use xlink:href="#f"
            transform="matrix(1,0,0,1,1108.103141807088,381.86947758048643) translate(5.599999999999994 17.1)" />
        <use xlink:href="#i" transform="matrix(1,0,0,1,881.1031418070879,413.86947758048643) translate(78.5 17.1)" />
        <use xlink:href="#j"
            transform="matrix(1,0,0,1,1108.103141807088,413.86947758048643) translate(5.599999999999994 17.1)" />
        <use xlink:href="#k" transform="matrix(1,0,0,1,881.1031418070879,445.86947758048643) translate(78.5 17.1)" />
        <use xlink:href="#j"
            transform="matrix(1,0,0,1,1108.103141807088,445.86947758048643) translate(5.599999999999994 17.1)" />
        <path d="M816.1 511.37a8 8 0 0 1 8-8h384a8 8 0 0 1 8 8v216a8 8 0 0 1-8 8h-384a8 8 0 0 1-8-8z" fill="#fff" />
        <path d="M816.1 575.37v33h400v-33M816.1 639.37v33h400v-33M816.1 703.37v24a8 8 0 0 0 8 8h384a8 8 0 0 0 8-8v-24"
            fill="#e6e6e6" />
        <path d="M816.1 543.37v-32a8 8 0 0 1 8-8h384a8 8 0 0 1 8 8v32" fill="#ccc" />
        <path
            d="M816.1 511.37a8 8 0 0 1 8-8h384a8 8 0 0 1 8 8v216a8 8 0 0 1-8 8h-384a8 8 0 0 1-8-8zM816.1 543.37h400M876.1 543.37v192M1103.1 543.37v192"
            stroke="#333" stroke-width="2" fill="none" />
        <use xlink:href="#l" transform="matrix(1,0,0,1,826.1031418070879,503.36947758048655) translate(153.525 23.6)" />
        <use xlink:href="#b" transform="matrix(1,0,0,1,821.1031418070879,545.8694775804865) translate(13 17.1)" />
        <use xlink:href="#m" transform="matrix(1,0,0,1,881.1031418070879,545.8694775804865) translate(60.05 17.1)" />
        <use xlink:href="#d" transform="matrix(1,0,0,1,1108.103141807088,545.8694775804865) translate(42.025 17.1)" />
        <use xlink:href="#n" transform="matrix(1,0,0,1,881.1031418070879,577.8694775804865) translate(86.025 17.1)" />
        <use xlink:href="#f"
            transform="matrix(1,0,0,1,1108.103141807088,577.8694775804865) translate(5.599999999999994 17.1)" />
        <use xlink:href="#o" transform="matrix(1,0,0,1,881.1031418070879,609.8694775804865) translate(81.525 17.1)" />
        <use xlink:href="#f"
            transform="matrix(1,0,0,1,1108.103141807088,609.8694775804865) translate(5.599999999999994 17.1)" />
        <use xlink:href="#p" transform="matrix(1,0,0,1,881.1031418070879,641.8694775804865) translate(95.025 17.1)" />
        <use xlink:href="#f"
            transform="matrix(1,0,0,1,1108.103141807088,641.8694775804865) translate(5.599999999999994 17.1)" />
        <use xlink:href="#q" transform="matrix(1,0,0,1,881.1031418070879,673.8694775804865) translate(89 17.1)" />
        <use xlink:href="#f"
            transform="matrix(1,0,0,1,1108.103141807088,673.8694775804865) translate(5.599999999999994 17.1)" />
        <use xlink:href="#r" transform="matrix(1,0,0,1,881.1031418070879,705.8694775804865) translate(97.025 17.1)" />
        <use xlink:href="#f"
            transform="matrix(1,0,0,1,1108.103141807088,705.8694775804865) translate(5.599999999999994 17.1)" />
        <path d="M816.1 774.04a8 8 0 0 1 8-8h384a8 8 0 0 1 8 8v88a8 8 0 0 1-8 8h-384a8 8 0 0 1-8-8z" fill="#fff" />
        <path d="M816.1 838.04v24a8 8 0 0 0 8 8h384a8 8 0 0 0 8-8v-24" fill="#e6e6e6" />
        <path d="M816.1 806.04v-32a8 8 0 0 1 8-8h384a8 8 0 0 1 8 8v32" fill="#ccc" />
        <path
            d="M816.1 774.04a8 8 0 0 1 8-8h384a8 8 0 0 1 8 8v88a8 8 0 0 1-8 8h-384a8 8 0 0 1-8-8zM816.1 806.04h400M876.1 806.04v64M1103.1 806.04v64"
            stroke="#333" stroke-width="2" fill="none" />
        <use xlink:href="#s" transform="matrix(1,0,0,1,826.1031418070879,766.0361442471532) translate(144.55 23.6)" />
        <use xlink:href="#b" transform="matrix(1,0,0,1,821.1031418070879,808.5361442471532) translate(13 17.1)" />
        <use xlink:href="#t"
            transform="matrix(1,0,0,1,881.1031418070879,808.5361442471532) translate(51.074999999999996 17.1)" />
        <use xlink:href="#d" transform="matrix(1,0,0,1,1108.103141807088,808.5361442471532) translate(42.025 17.1)" />
        <use xlink:href="#n" transform="matrix(1,0,0,1,881.1031418070879,840.5361442471532) translate(86.025 17.1)" />
        <use xlink:href="#f"
            transform="matrix(1,0,0,1,1108.103141807088,840.5361442471532) translate(5.599999999999994 17.1)" />
        <path d="M296.1 511.37a8 8 0 0 1 8-8h384a8 8 0 0 1 8 8v152a8 8 0 0 1-8 8h-384a8 8 0 0 1-8-8z" fill="#fff" />
        <path d="M296.1 575.37v33h400v-33M296.1 639.37v24a8 8 0 0 0 8 8h384a8 8 0 0 0 8-8v-24" fill="#e6e6e6" />
        <path d="M296.1 543.37v-32a8 8 0 0 1 8-8h384a8 8 0 0 1 8 8v32" fill="#ccc" />
        <path
            d="M296.1 511.37a8 8 0 0 1 8-8h384a8 8 0 0 1 8 8v152a8 8 0 0 1-8 8h-384a8 8 0 0 1-8-8zM296.1 543.37h400M356.1 543.37v128M583.1 543.37v128"
            stroke="#333" stroke-width="2" fill="none" />
        <use xlink:href="#u"
            transform="matrix(1,0,0,1,306.1031418070881,503.36947758048643) translate(109.57499999999999 23.6)" />
        <use xlink:href="#v" transform="matrix(1,0,0,1,301.1031418070881,545.8694775804864) translate(13 17.1)" />
        <use xlink:href="#w" transform="matrix(1,0,0,1,361.1031418070881,545.8694775804864) translate(101.525 17.1)" />
        <use xlink:href="#x" transform="matrix(1,0,0,1,588.1031418070882,545.8694775804864) translate(42.025 17.1)" />
        <use xlink:href="#y"
            transform="matrix(1,0,0,1,301.1031418070881,577.8694775804864) translate(13.524999999999999 17.1)" />
        <use xlink:href="#c"
            transform="matrix(1,0,0,1,361.1031418070881,577.8694775804864) translate(57.574999999999996 17.1)" />
        <use xlink:href="#x" transform="matrix(1,0,0,1,588.1031418070882,577.8694775804864) translate(42.025 17.1)" />
        <use xlink:href="#y"
            transform="matrix(1,0,0,1,301.1031418070881,609.8694775804864) translate(13.524999999999999 17.1)" />
        <use xlink:href="#m" transform="matrix(1,0,0,1,361.1031418070881,609.8694775804864) translate(60.05 17.1)" />
        <use xlink:href="#j"
            transform="matrix(1,0,0,1,588.1031418070882,609.8694775804864) translate(5.599999999999994 17.1)" />
        <use xlink:href="#y"
            transform="matrix(1,0,0,1,301.1031418070881,641.8694775804864) translate(13.524999999999999 17.1)" />
        <use xlink:href="#z"
            transform="matrix(1,0,0,1,361.1031418070881,641.8694775804864) translate(51.074999999999996 17.1)" />
        <use xlink:href="#j"
            transform="matrix(1,0,0,1,588.1031418070882,641.8694775804864) translate(5.599999999999994 17.1)" />
        <path
            d="M715.88 591.38h9.4m9.4 0h9.4l1.9-.15 1.82-.44 1.74-.73 1.6-.98 1.44-1.24 1.22-1.43.98-1.6.72-1.74.44-1.84v-10m0-10l.02-20m0-10l.02-20m0-10l.02-20.02m0-10v-20m.02-10v-20m.02-10v-20m0-10l.02-20m0-10l.02-20.02m0-10v-10l.16-1.88.44-1.83.72-1.73.98-1.6 1.23-1.44 1.44-1.22 1.6-.97 1.74-.72 1.83-.43 9.65-.05m9.64-.05l9.62-.05"
            stroke="#333" stroke-width="2" fill="none" />
        <path d="M697.5 581.38l20 10-20 10" stroke="#333" stroke-width="2" fill="#fff" fill-opacity="0" />
        <path d="M697.5 591.38h20M795.12 289.22v20M815.12 299.22h-20" stroke="#333" stroke-width="2" fill="#fff" />
        <path
            d="M715.9 623.46h9.62m9.62 0h19.23m9.62 0h9.6l1.9-.15 1.82-.43 1.74-.72 1.6-.98 1.44-1.23 1.22-1.43.98-1.6.72-1.73.44-1.83.03-7.93m0-7.92l.06-15.86m.03-7.93v-7.94l.13-1.48.35-1.46.57-1.37.78-1.28.97-1.13 1.13-.97 1.28-.78 1.38-.58 1.46-.35 1.48-.12"
            stroke="#333" stroke-width="2" fill="none" />
        <path d="M697.52 613.46l20 10-20 10" stroke="#333" stroke-width="2" fill="#fff" fill-opacity="0" />
        <path d="M697.52 623.46h20M795.12 546.25v20M815.12 556.25h-20" stroke="#333" stroke-width="2" fill="#fff" />
        <path
            d="M715.92 655.54h9.4m9.4 0h9.4l1.88.15 1.84.43 1.74.72 1.6.98 1.43 1.22 1.24 1.44.98 1.6.72 1.73.44 1.83v9.63m.02 9.6l.02 19.27m0 9.62l.03 19.25m0 9.62l.03 19.25m0 9.63l.03 19.25m.02 9.63v9.63l.15 1.87.44 1.83.74 1.74.98 1.6 1.22 1.44 1.43 1.22 1.6 1 1.75.7 1.83.45 9.64.06m9.62.05l9.64.06"
            stroke="#333" stroke-width="2" fill="none" />
        <path d="M697.55 645.54l20 10-20 10" stroke="#333" stroke-width="2" fill="#fff" fill-opacity="0" />
        <path d="M697.55 655.54h20M795.16 812.06v20M815.16 822.06h-20" stroke="#333" stroke-width="2" fill="#fff" />
        <defs>
            <path fill="#333"
                d="M100-194c63 0 86 42 84 106H49c0 40 14 67 53 68 26 1 43-12 49-29l28 8c-11 28-37 45-77 45C44 4 14-33 15-96c1-61 26-98 85-98zm52 81c6-60-76-77-97-28-3 7-6 17-6 28h103"
                id="A" />
            <path fill="#333"
                d="M210-169c-67 3-38 105-44 169h-31v-121c0-29-5-50-35-48C34-165 62-65 56 0H25l-1-190h30c1 10-1 24 2 32 10-44 99-50 107 0 11-21 27-35 58-36 85-2 47 119 55 194h-31v-121c0-29-5-49-35-48"
                id="B" />
            <path fill="#333"
                d="M115-194c55 1 70 41 70 98S169 2 115 4C84 4 66-9 55-30l1 105H24l-1-265h31l2 30c10-21 28-34 59-34zm-8 174c40 0 45-34 45-75s-6-73-45-74c-42 0-51 32-51 76 0 43 10 73 51 73"
                id="C" />
            <path fill="#333" d="M24 0v-261h32V0H24" id="D" />
            <path fill="#333"
                d="M100-194c62-1 85 37 85 99 1 63-27 99-86 99S16-35 15-95c0-66 28-99 85-99zM99-20c44 1 53-31 53-75 0-43-8-75-51-75s-53 32-53 75 10 74 51 75"
                id="E" />
            <path fill="#333" d="M179-190L93 31C79 59 56 82 12 73V49c39 6 53-20 64-50L1-190h34L92-34l54-156h33"
                id="F" />
            <g id="a">
                <use transform="matrix(0.05,0,0,0.05,0,0)" xlink:href="#A" />
                <use transform="matrix(0.05,0,0,0.05,10,0)" xlink:href="#B" />
                <use transform="matrix(0.05,0,0,0.05,24.950000000000003,0)" xlink:href="#C" />
                <use transform="matrix(0.05,0,0,0.05,34.95,0)" xlink:href="#D" />
                <use transform="matrix(0.05,0,0,0.05,38.900000000000006,0)" xlink:href="#E" />
                <use transform="matrix(0.05,0,0,0.05,48.900000000000006,0)" xlink:href="#F" />
                <use transform="matrix(0.05,0,0,0.05,57.900000000000006,0)" xlink:href="#A" />
                <use transform="matrix(0.05,0,0,0.05,67.9,0)" xlink:href="#A" />
            </g>
            <path fill="#333"
                d="M30-248c87 1 191-15 191 75 0 78-77 80-158 76V0H30v-248zm33 125c57 0 124 11 124-50 0-59-68-47-124-48v98"
                id="G" />
            <path fill="#333" d="M194 0L95-120 63-95V0H30v-248h33v124l119-124h40L117-140 236 0h-42" id="H" />
            <g id="b">
                <use transform="matrix(0.05,0,0,0.05,0,0)" xlink:href="#G" />
                <use transform="matrix(0.05,0,0,0.05,12,0)" xlink:href="#H" />
            </g>
            <path fill="#333"
                d="M111-194c62-3 86 47 72 106H45c-7 38 6 69 45 68 27-1 43-14 53-32l24 11C152-15 129 4 87 4 38 3 12-23 12-71c0-70 32-119 99-123zm44 81c14-66-71-72-95-28-4 8-8 17-11 28h106"
                id="I" />
            <path fill="#333"
                d="M248-111c6-24 9-61-24-58-72 9-57 108-77 169h-31l26-142c3-37-50-30-64-10C52-115 50-51 37 0H6l36-190h30c-1 10-6 24-4 32 13-43 101-52 105 5 13-22 29-41 61-41 90 0 28 129 23 194h-31"
                id="J" />
            <path fill="#333"
                d="M67-162c32-53 139-36 121 50C175-51 163 2 97 4 68 4 52-11 42-31 38 6 28 39 22 75H-9l50-265h29c-1 10 0 20-3 28zm89 36c0-26-10-43-35-43-54 0-67 50-69 103-1 29 14 45 42 46 53 0 62-58 62-106"
                id="K" />
            <path fill="#333" d="M6 0l50-261h32L37 0H6" id="L" />
            <path fill="#333"
                d="M30-147c31-64 166-65 159 27C183-49 158 1 86 4 9 8 1-88 30-147zM88-20c53 0 68-48 68-100 0-31-11-51-44-50-52 1-68 46-68 97 0 32 13 53 44 53"
                id="M" />
            <path fill="#333"
                d="M198-190L69 30C53 58 25 83-20 72c4-11-1-27 19-22 33-1 43-29 59-52L20-190h32L79-34l84-156h35"
                id="N" />
            <path fill="#333" d="M-28 44V31h207v13H-28" id="O" />
            <path fill="#333" d="M50-231l6-30h32l-6 30H50zM6 0l37-190h31L37 0H6" id="P" />
            <path fill="#333"
                d="M133-28C103 26-5 8 13-77c13-62 24-115 90-117 29-1 46 15 56 35l19-102h32L160 0h-30zM45-64c-2 27 10 43 35 43 54-1 69-50 69-103 0-29-15-46-42-46-53-1-58 58-62 106"
                id="Q" />
            <g id="c">
                <use transform="matrix(0.05,0,0,0.05,0,0)" xlink:href="#I" />
                <use transform="matrix(0.05,0,0,0.05,10,0)" xlink:href="#J" />
                <use transform="matrix(0.05,0,0,0.05,24.950000000000003,0)" xlink:href="#K" />
                <use transform="matrix(0.05,0,0,0.05,34.95,0)" xlink:href="#L" />
                <use transform="matrix(0.05,0,0,0.05,38.900000000000006,0)" xlink:href="#M" />
                <use transform="matrix(0.05,0,0,0.05,48.900000000000006,0)" xlink:href="#N" />
                <use transform="matrix(0.05,0,0,0.05,57.900000000000006,0)" xlink:href="#I" />
                <use transform="matrix(0.05,0,0,0.05,67.9,0)" xlink:href="#I" />
                <use transform="matrix(0.05,0,0,0.05,77.9,0)" xlink:href="#O" />
                <use transform="matrix(0.05,0,0,0.05,87.9,0)" xlink:href="#P" />
                <use transform="matrix(0.05,0,0,0.05,91.85000000000001,0)" xlink:href="#Q" />
            </g>
            <path fill="#333" d="M24-231v-30h32v30H24zM24 0v-190h32V0H24" id="R" />
            <path fill="#333"
                d="M117-194c89-4 53 116 60 194h-32v-121c0-31-8-49-39-48C34-167 62-67 57 0H25l-1-190h30c1 10-1 24 2 32 11-22 29-35 61-36"
                id="S" />
            <path fill="#333" d="M59-47c-2 24 18 29 38 22v24C64 9 27 4 27-40v-127H5v-23h24l9-43h21v43h35v23H59v120"
                id="T" />
            <g id="d">
                <use transform="matrix(0.05,0,0,0.05,0,0)" xlink:href="#R" />
                <use transform="matrix(0.05,0,0,0.05,3.95,0)" xlink:href="#S" />
                <use transform="matrix(0.05,0,0,0.05,13.949999999999998,0)" xlink:href="#T" />
            </g>
            <path fill="#333" d="M76-167L44 0H12l33-167H18l4-23h27c3-47 25-81 82-69l-4 24c-35-8-44 15-46 45h37l-5 23H76"
                id="U" />
            <path fill="#333" d="M66-151c12-25 30-51 66-40l-6 26C45-176 58-65 38 0H6l36-190h30" id="V" />
            <path fill="#333"
                d="M55-144c13 50 104 24 104 88C159 21 15 23 1-39l26-10c6 40 102 42 102-4-13-50-104-23-104-87 0-71 143-71 148-8l-29 4c-5-35-85-37-89 0"
                id="W" />
            <path fill="#333"
                d="M51-54c-9 22 5 41 31 30L79-1C43 14 10-4 19-52l22-115H19l5-23h22l19-43h21l-9 43h35l-4 23H73" id="X" />
            <g id="e">
                <use transform="matrix(0.05,0,0,0.05,0,0)" xlink:href="#U" />
                <use transform="matrix(0.05,0,0,0.05,5,0)" xlink:href="#P" />
                <use transform="matrix(0.05,0,0,0.05,8.95,0)" xlink:href="#V" />
                <use transform="matrix(0.05,0,0,0.05,14.899999999999999,0)" xlink:href="#W" />
                <use transform="matrix(0.05,0,0,0.05,23.9,0)" xlink:href="#X" />
                <use transform="matrix(0.05,0,0,0.05,28.899999999999995,0)" xlink:href="#O" />
                <use transform="matrix(0.05,0,0,0.05,38.9,0)" xlink:href="#J" />
                <use transform="matrix(0.05,0,0,0.05,53.85,0)" xlink:href="#M" />
                <use transform="matrix(0.05,0,0,0.05,63.85,0)" xlink:href="#Q" />
                <use transform="matrix(0.05,0,0,0.05,73.85,0)" xlink:href="#I" />
                <use transform="matrix(0.05,0,0,0.05,83.85,0)" xlink:href="#L" />
            </g>
            <path fill="#333" d="M108 0H70L1-190h34L89-25l56-165h34" id="Y" />
            <path fill="#333"
                d="M141-36C126-15 110 5 73 4 37 3 15-17 15-53c-1-64 63-63 125-63 3-35-9-54-41-54-24 1-41 7-42 31l-33-3c5-37 33-52 76-52 45 0 72 20 72 64v82c-1 20 7 32 28 27v20c-31 9-61-2-59-35zM48-53c0 20 12 33 32 33 41-3 63-29 60-74-43 2-92-5-92 41"
                id="Z" />
            <path fill="#333" d="M114-163C36-179 61-72 57 0H25l-1-190h30c1 12-1 29 2 39 6-27 23-49 58-41v29" id="aa" />
            <path fill="#333"
                d="M96-169c-40 0-48 33-48 73s9 75 48 75c24 0 41-14 43-38l32 2c-6 37-31 61-74 61-59 0-76-41-82-99-10-93 101-131 147-64 4 7 5 14 7 22l-32 3c-4-21-16-35-41-35"
                id="ab" />
            <path fill="#333"
                d="M106-169C34-169 62-67 57 0H25v-261h32l-1 103c12-21 28-36 61-36 89 0 53 116 60 194h-32v-121c2-32-8-49-39-48"
                id="ac" />
            <path fill="#333" d="M87 75C49 33 22-17 22-94c0-76 28-126 65-167h31c-38 41-64 92-64 168S80 34 118 75H87"
                id="ad" />
            <path fill="#333"
                d="M54-142c48-35 137-8 131 61C196 18 31 33 14-55l32-4c7 23 22 37 52 37 35-1 51-22 54-58 4-55-73-65-99-34H22l8-134h141v27H59"
                id="ae" />
            <path fill="#333"
                d="M101-251c68 0 85 55 85 127S166 4 100 4C33 4 14-52 14-124c0-73 17-127 87-127zm-1 229c47 0 54-49 54-102s-4-102-53-102c-51 0-55 48-55 102 0 53 5 102 54 102"
                id="af" />
            <path fill="#333" d="M33-261c38 41 65 92 65 168S71 34 33 75H2C39 34 66-17 66-93S39-220 2-261h31" id="ag" />
            <g id="f">
                <use transform="matrix(0.05,0,0,0.05,0,0)" xlink:href="#Y" />
                <use transform="matrix(0.05,0,0,0.05,9,0)" xlink:href="#Z" />
                <use transform="matrix(0.05,0,0,0.05,19,0)" xlink:href="#aa" />
                <use transform="matrix(0.05,0,0,0.05,24.95,0)" xlink:href="#ab" />
                <use transform="matrix(0.05,0,0,0.05,33.95,0)" xlink:href="#ac" />
                <use transform="matrix(0.05,0,0,0.05,43.95,0)" xlink:href="#Z" />
                <use transform="matrix(0.05,0,0,0.05,53.95,0)" xlink:href="#aa" />
                <use transform="matrix(0.05,0,0,0.05,59.900000000000006,0)" xlink:href="#ad" />
                <use transform="matrix(0.05,0,0,0.05,65.85000000000001,0)" xlink:href="#ae" />
                <use transform="matrix(0.05,0,0,0.05,75.85000000000001,0)" xlink:href="#af" />
                <use transform="matrix(0.05,0,0,0.05,85.85000000000001,0)" xlink:href="#ag" />
            </g>
            <path fill="#333"
                d="M165-48c-4 18 1 34 23 27l-3 20c-29 8-62 0-52-35h-2C116-14 99 4 63 4 30 4 8-16 8-49c0-68 71-67 138-67 10-26 0-56-31-54-26 1-42 9-47 31l-32-5c8-67 160-71 144 15-5 28-9 54-15 81zM42-50c3 52 80 24 89-6 7-12 7-24 11-38-47 1-103-4-100 44"
                id="ah" />
            <path fill="#333"
                d="M67-158c22-48 132-52 116 29L158 0h-32l25-140c3-38-53-32-70-12C52-117 51-52 38 0H6l36-190h30"
                id="ai" />
            <g id="g">
                <use transform="matrix(0.05,0,0,0.05,0,0)" xlink:href="#L" />
                <use transform="matrix(0.05,0,0,0.05,3.95,0)" xlink:href="#ah" />
                <use transform="matrix(0.05,0,0,0.05,13.949999999999998,0)" xlink:href="#W" />
                <use transform="matrix(0.05,0,0,0.05,22.95,0)" xlink:href="#X" />
                <use transform="matrix(0.05,0,0,0.05,27.950000000000003,0)" xlink:href="#O" />
                <use transform="matrix(0.05,0,0,0.05,37.95,0)" xlink:href="#ai" />
                <use transform="matrix(0.05,0,0,0.05,47.95,0)" xlink:href="#ah" />
                <use transform="matrix(0.05,0,0,0.05,57.95,0)" xlink:href="#J" />
                <use transform="matrix(0.05,0,0,0.05,72.9,0)" xlink:href="#I" />
            </g>
            <g id="h">
                <use transform="matrix(0.05,0,0,0.05,0,0)" xlink:href="#A" />
                <use transform="matrix(0.05,0,0,0.05,10,0)" xlink:href="#B" />
                <use transform="matrix(0.05,0,0,0.05,24.950000000000003,0)" xlink:href="#Z" />
                <use transform="matrix(0.05,0,0,0.05,34.95,0)" xlink:href="#R" />
                <use transform="matrix(0.05,0,0,0.05,38.900000000000006,0)" xlink:href="#D" />
            </g>
            <path fill="#333"
                d="M67-158c15-20 31-36 64-36 94 0 33 127 27 194h-32l25-140c3-38-53-32-70-12C52-117 51-51 37 0H6l51-261h31"
                id="aj" />
            <path fill="#333" d="M9 0l6-27h63l36-188-63 39 6-31 66-41h29L110-27h60l-5 27H9" id="ak" />
            <g id="i">
                <use transform="matrix(0.05,0,0,0.05,0,0)" xlink:href="#K" />
                <use transform="matrix(0.05,0,0,0.05,10,0)" xlink:href="#aj" />
                <use transform="matrix(0.05,0,0,0.05,20,0)" xlink:href="#M" />
                <use transform="matrix(0.05,0,0,0.05,30,0)" xlink:href="#ai" />
                <use transform="matrix(0.05,0,0,0.05,40,0)" xlink:href="#I" />
                <use transform="matrix(0.05,0,0,0.05,50,0)" xlink:href="#ak" />
            </g>
            <g id="j">
                <use transform="matrix(0.05,0,0,0.05,0,0)" xlink:href="#Y" />
                <use transform="matrix(0.05,0,0,0.05,9,0)" xlink:href="#Z" />
                <use transform="matrix(0.05,0,0,0.05,19,0)" xlink:href="#aa" />
                <use transform="matrix(0.05,0,0,0.05,24.95,0)" xlink:href="#ab" />
                <use transform="matrix(0.05,0,0,0.05,33.95,0)" xlink:href="#ac" />
                <use transform="matrix(0.05,0,0,0.05,43.95,0)" xlink:href="#Z" />
                <use transform="matrix(0.05,0,0,0.05,53.95,0)" xlink:href="#aa" />
                <use transform="matrix(0.05,0,0,0.05,59.900000000000006,0)" xlink:href="#ad" />
                <use transform="matrix(0.05,0,0,0.05,65.85000000000001,0)" xlink:href="#ae" />
                <use transform="matrix(0.05,0,0,0.05,75.85000000000001,0)" xlink:href="#af" />
                <use transform="matrix(0.05,0,0,0.05,85.85000000000001,0)" xlink:href="#ag" />
            </g>
            <path fill="#333"
                d="M101-251c82-7 93 87 43 132L82-64C71-53 59-42 53-27h129V0H18c2-99 128-94 128-182 0-28-16-43-45-43s-46 15-49 41l-32-3c6-41 34-60 81-64"
                id="al" />
            <g id="k">
                <use transform="matrix(0.05,0,0,0.05,0,0)" xlink:href="#C" />
                <use transform="matrix(0.05,0,0,0.05,10,0)" xlink:href="#ac" />
                <use transform="matrix(0.05,0,0,0.05,20,0)" xlink:href="#E" />
                <use transform="matrix(0.05,0,0,0.05,30,0)" xlink:href="#S" />
                <use transform="matrix(0.05,0,0,0.05,40,0)" xlink:href="#A" />
                <use transform="matrix(0.05,0,0,0.05,50,0)" xlink:href="#al" />
            </g>
            <g id="l">
                <use transform="matrix(0.05,0,0,0.05,0,0)" xlink:href="#ab" />
                <use transform="matrix(0.05,0,0,0.05,9,0)" xlink:href="#E" />
                <use transform="matrix(0.05,0,0,0.05,19,0)" xlink:href="#B" />
                <use transform="matrix(0.05,0,0,0.05,33.95,0)" xlink:href="#C" />
                <use transform="matrix(0.05,0,0,0.05,43.95,0)" xlink:href="#Z" />
                <use transform="matrix(0.05,0,0,0.05,53.95,0)" xlink:href="#S" />
                <use transform="matrix(0.05,0,0,0.05,63.95,0)" xlink:href="#F" />
            </g>
            <path fill="#333"
                d="M44-68c0 29 11 47 38 47 30 0 42-19 51-41l28 9C148-21 126 4 82 4 31 4 10-29 12-85c3-77 74-140 146-93 12 8 15 23 18 40l-31 5c-1-22-13-36-36-36-52 0-65 49-65 101"
                id="am" />
            <g id="m">
                <use transform="matrix(0.05,0,0,0.05,0,0)" xlink:href="#am" />
                <use transform="matrix(0.05,0,0,0.05,9,0)" xlink:href="#M" />
                <use transform="matrix(0.05,0,0,0.05,19,0)" xlink:href="#J" />
                <use transform="matrix(0.05,0,0,0.05,33.95,0)" xlink:href="#K" />
                <use transform="matrix(0.05,0,0,0.05,43.95,0)" xlink:href="#ah" />
                <use transform="matrix(0.05,0,0,0.05,53.95,0)" xlink:href="#ai" />
                <use transform="matrix(0.05,0,0,0.05,63.95,0)" xlink:href="#N" />
                <use transform="matrix(0.05,0,0,0.05,72.95,0)" xlink:href="#O" />
                <use transform="matrix(0.05,0,0,0.05,82.95,0)" xlink:href="#P" />
                <use transform="matrix(0.05,0,0,0.05,86.9,0)" xlink:href="#Q" />
            </g>
            <g id="n">
                <use transform="matrix(0.05,0,0,0.05,0,0)" xlink:href="#ai" />
                <use transform="matrix(0.05,0,0,0.05,10,0)" xlink:href="#ah" />
                <use transform="matrix(0.05,0,0,0.05,20,0)" xlink:href="#J" />
                <use transform="matrix(0.05,0,0,0.05,34.95,0)" xlink:href="#I" />
            </g>
            <g id="o">
                <use transform="matrix(0.05,0,0,0.05,0,0)" xlink:href="#ah" />
                <use transform="matrix(0.05,0,0,0.05,10,0)" xlink:href="#Q" />
                <use transform="matrix(0.05,0,0,0.05,20,0)" xlink:href="#V" />
                <use transform="matrix(0.05,0,0,0.05,25.950000000000003,0)" xlink:href="#I" />
                <use transform="matrix(0.05,0,0,0.05,35.95,0)" xlink:href="#W" />
                <use transform="matrix(0.05,0,0,0.05,44.95,0)" xlink:href="#W" />
            </g>
            <g id="p">
                <use transform="matrix(0.05,0,0,0.05,0,0)" xlink:href="#am" />
                <use transform="matrix(0.05,0,0,0.05,9,0)" xlink:href="#P" />
                <use transform="matrix(0.05,0,0,0.05,12.949999999999998,0)" xlink:href="#X" />
                <use transform="matrix(0.05,0,0,0.05,17.95,0)" xlink:href="#N" />
            </g>
            <g id="q">
                <use transform="matrix(0.05,0,0,0.05,0,0)" xlink:href="#W" />
                <use transform="matrix(0.05,0,0,0.05,9,0)" xlink:href="#X" />
                <use transform="matrix(0.05,0,0,0.05,14,0)" xlink:href="#ah" />
                <use transform="matrix(0.05,0,0,0.05,24,0)" xlink:href="#X" />
                <use transform="matrix(0.05,0,0,0.05,29,0)" xlink:href="#I" />
            </g>
            <path fill="#333" d="M-8 0l5-24 140-142H31l5-24h145l-5 24L36-24h119l-5 24H-8" id="an" />
            <g id="r">
                <use transform="matrix(0.05,0,0,0.05,0,0)" xlink:href="#an" />
                <use transform="matrix(0.05,0,0,0.05,9,0)" xlink:href="#P" />
                <use transform="matrix(0.05,0,0,0.05,12.949999999999998,0)" xlink:href="#K" />
            </g>
            <g id="s">
                <use transform="matrix(0.05,0,0,0.05,0,0)" xlink:href="#Q" />
                <use transform="matrix(0.05,0,0,0.05,10,0)" xlink:href="#I" />
                <use transform="matrix(0.05,0,0,0.05,20,0)" xlink:href="#K" />
                <use transform="matrix(0.05,0,0,0.05,30,0)" xlink:href="#ah" />
                <use transform="matrix(0.05,0,0,0.05,40,0)" xlink:href="#V" />
                <use transform="matrix(0.05,0,0,0.05,45.95,0)" xlink:href="#X" />
                <use transform="matrix(0.05,0,0,0.05,50.95,0)" xlink:href="#J" />
                <use transform="matrix(0.05,0,0,0.05,65.9,0)" xlink:href="#I" />
                <use transform="matrix(0.05,0,0,0.05,75.9,0)" xlink:href="#ai" />
                <use transform="matrix(0.05,0,0,0.05,85.9,0)" xlink:href="#X" />
            </g>
            <g id="t">
                <use transform="matrix(0.05,0,0,0.05,0,0)" xlink:href="#Q" />
                <use transform="matrix(0.05,0,0,0.05,10,0)" xlink:href="#I" />
                <use transform="matrix(0.05,0,0,0.05,20,0)" xlink:href="#K" />
                <use transform="matrix(0.05,0,0,0.05,30,0)" xlink:href="#ah" />
                <use transform="matrix(0.05,0,0,0.05,40,0)" xlink:href="#V" />
                <use transform="matrix(0.05,0,0,0.05,45.95,0)" xlink:href="#X" />
                <use transform="matrix(0.05,0,0,0.05,50.95,0)" xlink:href="#J" />
                <use transform="matrix(0.05,0,0,0.05,65.9,0)" xlink:href="#I" />
                <use transform="matrix(0.05,0,0,0.05,75.9,0)" xlink:href="#ai" />
                <use transform="matrix(0.05,0,0,0.05,85.9,0)" xlink:href="#X" />
                <use transform="matrix(0.05,0,0,0.05,90.9,0)" xlink:href="#O" />
                <use transform="matrix(0.05,0,0,0.05,100.9,0)" xlink:href="#P" />
                <use transform="matrix(0.05,0,0,0.05,104.85000000000001,0)" xlink:href="#Q" />
            </g>
            <path fill="#333" d="M-5 72V49h209v23H-5" id="ao" />
            <g id="u">
                <use transform="matrix(0.05,0,0,0.05,0,0)" xlink:href="#A" />
                <use transform="matrix(0.05,0,0,0.05,10,0)" xlink:href="#B" />
                <use transform="matrix(0.05,0,0,0.05,24.950000000000003,0)" xlink:href="#C" />
                <use transform="matrix(0.05,0,0,0.05,34.95,0)" xlink:href="#D" />
                <use transform="matrix(0.05,0,0,0.05,38.900000000000006,0)" xlink:href="#E" />
                <use transform="matrix(0.05,0,0,0.05,48.900000000000006,0)" xlink:href="#F" />
                <use transform="matrix(0.05,0,0,0.05,57.900000000000006,0)" xlink:href="#A" />
                <use transform="matrix(0.05,0,0,0.05,67.9,0)" xlink:href="#A" />
                <use transform="matrix(0.05,0,0,0.05,77.9,0)" xlink:href="#ao" />
                <use transform="matrix(0.05,0,0,0.05,87.9,0)" xlink:href="#ab" />
                <use transform="matrix(0.05,0,0,0.05,96.9,0)" xlink:href="#E" />
                <use transform="matrix(0.05,0,0,0.05,106.9,0)" xlink:href="#B" />
                <use transform="matrix(0.05,0,0,0.05,121.85000000000001,0)" xlink:href="#C" />
                <use transform="matrix(0.05,0,0,0.05,131.85000000000002,0)" xlink:href="#Z" />
                <use transform="matrix(0.05,0,0,0.05,141.85000000000002,0)" xlink:href="#S" />
                <use transform="matrix(0.05,0,0,0.05,151.85000000000002,0)" xlink:href="#F" />
            </g>
            <g id="v">
                <use transform="matrix(0.05,0,0,0.05,0,0)" xlink:href="#G" />
                <use transform="matrix(0.05,0,0,0.05,12,0)" xlink:href="#H" />
            </g>
            <g id="w">
                <use transform="matrix(0.05,0,0,0.05,0,0)" xlink:href="#P" />
                <use transform="matrix(0.05,0,0,0.05,3.95,0)" xlink:href="#Q" />
            </g>
            <g id="x">
                <use transform="matrix(0.05,0,0,0.05,0,0)" xlink:href="#R" />
                <use transform="matrix(0.05,0,0,0.05,3.95,0)" xlink:href="#S" />
                <use transform="matrix(0.05,0,0,0.05,13.949999999999998,0)" xlink:href="#T" />
            </g>
            <path fill="#333" d="M63-220v92h138v28H63V0H30v-248h175v28H63" id="ap" />
            <g id="y">
                <use transform="matrix(0.05,0,0,0.05,0,0)" xlink:href="#ap" />
                <use transform="matrix(0.05,0,0,0.05,10.950000000000001,0)" xlink:href="#H" />
            </g>
            <g id="z">
                <use transform="matrix(0.05,0,0,0.05,0,0)" xlink:href="#Q" />
                <use transform="matrix(0.05,0,0,0.05,10,0)" xlink:href="#I" />
                <use transform="matrix(0.05,0,0,0.05,20,0)" xlink:href="#K" />
                <use transform="matrix(0.05,0,0,0.05,30,0)" xlink:href="#ah" />
                <use transform="matrix(0.05,0,0,0.05,40,0)" xlink:href="#V" />
                <use transform="matrix(0.05,0,0,0.05,45.95,0)" xlink:href="#X" />
                <use transform="matrix(0.05,0,0,0.05,50.95,0)" xlink:href="#J" />
                <use transform="matrix(0.05,0,0,0.05,65.9,0)" xlink:href="#I" />
                <use transform="matrix(0.05,0,0,0.05,75.9,0)" xlink:href="#ai" />
                <use transform="matrix(0.05,0,0,0.05,85.9,0)" xlink:href="#X" />
                <use transform="matrix(0.05,0,0,0.05,90.9,0)" xlink:href="#O" />
                <use transform="matrix(0.05,0,0,0.05,100.9,0)" xlink:href="#P" />
                <use transform="matrix(0.05,0,0,0.05,104.85000000000001,0)" xlink:href="#Q" />
            </g>
        </defs>
    </g>
</svg>